<mxfile host="app.diagrams.net" modified="2024-06-06T20:36:09.806Z" agent="Mozilla/5.0 (Windows NT 10.0; Win64; x64) AppleWebKit/537.36 (KHTML, like Gecko) Chrome/125.0.0.0 Safari/537.36" etag="NfzkYv6EFOjmB1QscuFX" version="24.5.1" type="device">
  <diagram name="Page-1" id="e7e014a7-5840-1c2e-5031-d8a46d1fe8dd">
    <mxGraphModel dx="1272" dy="869" grid="1" gridSize="10" guides="1" tooltips="1" connect="1" arrows="1" fold="1" page="1" pageScale="1" pageWidth="1169" pageHeight="826" background="none" math="0" shadow="0">
      <root>
        <mxCell id="0" />
        <mxCell id="1" parent="0" />
        <mxCell id="NAFzHvzBYw-k1l3KXW49-41" value="&lt;font style=&quot;font-size: 16px;&quot;&gt;Диаграмма классов&lt;/font&gt;" style="text;align=center;fontStyle=1;verticalAlign=middle;spacingLeft=3;spacingRight=3;strokeColor=none;rotatable=0;points=[[0,0.5],[1,0.5]];portConstraint=eastwest;html=1;" vertex="1" parent="1">
          <mxGeometry x="520" y="20" width="80" height="26" as="geometry" />
        </mxCell>
        <mxCell id="NAFzHvzBYw-k1l3KXW49-43" value="" style="html=1;verticalAlign=bottom;startArrow=circle;startFill=1;endArrow=open;startSize=6;endSize=8;curved=0;rounded=0;" edge="1" parent="1">
          <mxGeometry width="80" relative="1" as="geometry">
            <mxPoint x="70" y="110" as="sourcePoint" />
            <mxPoint x="150" y="110" as="targetPoint" />
          </mxGeometry>
        </mxCell>
        <mxCell id="NAFzHvzBYw-k1l3KXW49-74" value="Создание&amp;nbsp;&lt;div&gt;заказа&lt;/div&gt;" style="edgeLabel;html=1;align=center;verticalAlign=middle;resizable=0;points=[];" vertex="1" connectable="0" parent="NAFzHvzBYw-k1l3KXW49-43">
          <mxGeometry x="0.0726" y="-1" relative="1" as="geometry">
            <mxPoint x="7" y="-21" as="offset" />
          </mxGeometry>
        </mxCell>
        <mxCell id="NAFzHvzBYw-k1l3KXW49-44" value="" style="ellipse;whiteSpace=wrap;html=1;aspect=fixed;" vertex="1" parent="1">
          <mxGeometry x="880" y="480" width="30" height="30" as="geometry" />
        </mxCell>
        <mxCell id="NAFzHvzBYw-k1l3KXW49-45" value="" style="ellipse;whiteSpace=wrap;html=1;aspect=fixed;fillColor=#0D0D0D;" vertex="1" parent="1">
          <mxGeometry x="883.75" y="483.75" width="22.5" height="22.5" as="geometry" />
        </mxCell>
        <mxCell id="NAFzHvzBYw-k1l3KXW49-57" style="edgeStyle=orthogonalEdgeStyle;rounded=0;orthogonalLoop=1;jettySize=auto;html=1;exitX=0.5;exitY=1;exitDx=0;exitDy=0;entryX=0;entryY=0.5;entryDx=0;entryDy=0;" edge="1" parent="1" source="NAFzHvzBYw-k1l3KXW49-46" target="NAFzHvzBYw-k1l3KXW49-47">
          <mxGeometry relative="1" as="geometry" />
        </mxCell>
        <mxCell id="NAFzHvzBYw-k1l3KXW49-46" value="Пустой заказ" style="rounded=1;whiteSpace=wrap;html=1;" vertex="1" parent="1">
          <mxGeometry x="160" y="90" width="90" height="40" as="geometry" />
        </mxCell>
        <mxCell id="NAFzHvzBYw-k1l3KXW49-58" style="edgeStyle=orthogonalEdgeStyle;rounded=0;orthogonalLoop=1;jettySize=auto;html=1;exitX=1;exitY=0.5;exitDx=0;exitDy=0;entryX=0.5;entryY=1;entryDx=0;entryDy=0;" edge="1" parent="1" source="NAFzHvzBYw-k1l3KXW49-47" target="NAFzHvzBYw-k1l3KXW49-48">
          <mxGeometry relative="1" as="geometry" />
        </mxCell>
        <mxCell id="NAFzHvzBYw-k1l3KXW49-78" value="выбор заказа" style="edgeLabel;html=1;align=center;verticalAlign=middle;resizable=0;points=[];" vertex="1" connectable="0" parent="NAFzHvzBYw-k1l3KXW49-58">
          <mxGeometry x="0.3112" y="-3" relative="1" as="geometry">
            <mxPoint as="offset" />
          </mxGeometry>
        </mxCell>
        <mxCell id="NAFzHvzBYw-k1l3KXW49-47" value="Выбор ресторана" style="rounded=1;whiteSpace=wrap;html=1;" vertex="1" parent="1">
          <mxGeometry x="280" y="190" width="80" height="40" as="geometry" />
        </mxCell>
        <mxCell id="NAFzHvzBYw-k1l3KXW49-59" style="edgeStyle=orthogonalEdgeStyle;rounded=0;orthogonalLoop=1;jettySize=auto;html=1;exitX=0;exitY=0.5;exitDx=0;exitDy=0;entryX=1;entryY=0.5;entryDx=0;entryDy=0;" edge="1" parent="1" source="NAFzHvzBYw-k1l3KXW49-48" target="NAFzHvzBYw-k1l3KXW49-46">
          <mxGeometry relative="1" as="geometry" />
        </mxCell>
        <mxCell id="NAFzHvzBYw-k1l3KXW49-75" value="отмена заказа" style="edgeLabel;html=1;align=center;verticalAlign=middle;resizable=0;points=[];" vertex="1" connectable="0" parent="NAFzHvzBYw-k1l3KXW49-59">
          <mxGeometry x="0.0469" y="-1" relative="1" as="geometry">
            <mxPoint x="8" y="-9" as="offset" />
          </mxGeometry>
        </mxCell>
        <mxCell id="NAFzHvzBYw-k1l3KXW49-60" style="edgeStyle=orthogonalEdgeStyle;rounded=0;orthogonalLoop=1;jettySize=auto;html=1;exitX=1;exitY=0.5;exitDx=0;exitDy=0;entryX=0;entryY=0.5;entryDx=0;entryDy=0;" edge="1" parent="1" source="NAFzHvzBYw-k1l3KXW49-48" target="NAFzHvzBYw-k1l3KXW49-49">
          <mxGeometry relative="1" as="geometry" />
        </mxCell>
        <mxCell id="NAFzHvzBYw-k1l3KXW49-48" value="Готовый заказ" style="rounded=1;whiteSpace=wrap;html=1;" vertex="1" parent="1">
          <mxGeometry x="380" y="90" width="90" height="40" as="geometry" />
        </mxCell>
        <mxCell id="NAFzHvzBYw-k1l3KXW49-61" style="edgeStyle=orthogonalEdgeStyle;rounded=0;orthogonalLoop=1;jettySize=auto;html=1;exitX=0.5;exitY=1;exitDx=0;exitDy=0;entryX=0.5;entryY=0;entryDx=0;entryDy=0;" edge="1" parent="1" source="NAFzHvzBYw-k1l3KXW49-49" target="NAFzHvzBYw-k1l3KXW49-50">
          <mxGeometry relative="1" as="geometry" />
        </mxCell>
        <mxCell id="NAFzHvzBYw-k1l3KXW49-80" value="заказ отправлен системой в ресторан и оплачен&amp;nbsp;" style="edgeLabel;html=1;align=center;verticalAlign=middle;resizable=0;points=[];" vertex="1" connectable="0" parent="NAFzHvzBYw-k1l3KXW49-61">
          <mxGeometry x="-0.0109" y="1" relative="1" as="geometry">
            <mxPoint as="offset" />
          </mxGeometry>
        </mxCell>
        <mxCell id="NAFzHvzBYw-k1l3KXW49-49" value="Подтверждённый заказ" style="rounded=1;whiteSpace=wrap;html=1;" vertex="1" parent="1">
          <mxGeometry x="540" y="90" width="100" height="50" as="geometry" />
        </mxCell>
        <mxCell id="NAFzHvzBYw-k1l3KXW49-50" value="Отправленный в ресторан заказ" style="rounded=1;whiteSpace=wrap;html=1;" vertex="1" parent="1">
          <mxGeometry x="540" y="170" width="90" height="50" as="geometry" />
        </mxCell>
        <mxCell id="NAFzHvzBYw-k1l3KXW49-51" value="Приготовленный заказ" style="rounded=1;whiteSpace=wrap;html=1;" vertex="1" parent="1">
          <mxGeometry x="400" y="295" width="90" height="45" as="geometry" />
        </mxCell>
        <mxCell id="NAFzHvzBYw-k1l3KXW49-64" style="edgeStyle=orthogonalEdgeStyle;rounded=0;orthogonalLoop=1;jettySize=auto;html=1;exitX=1;exitY=0.5;exitDx=0;exitDy=0;entryX=0.5;entryY=1;entryDx=0;entryDy=0;" edge="1" parent="1" source="NAFzHvzBYw-k1l3KXW49-52" target="NAFzHvzBYw-k1l3KXW49-53">
          <mxGeometry relative="1" as="geometry" />
        </mxCell>
        <mxCell id="NAFzHvzBYw-k1l3KXW49-83" value="заказ потерян по вине курьера" style="edgeLabel;html=1;align=center;verticalAlign=middle;resizable=0;points=[];" vertex="1" connectable="0" parent="NAFzHvzBYw-k1l3KXW49-64">
          <mxGeometry x="-0.1017" y="6" relative="1" as="geometry">
            <mxPoint as="offset" />
          </mxGeometry>
        </mxCell>
        <mxCell id="NAFzHvzBYw-k1l3KXW49-69" style="edgeStyle=orthogonalEdgeStyle;rounded=0;orthogonalLoop=1;jettySize=auto;html=1;exitX=0.5;exitY=1;exitDx=0;exitDy=0;entryX=0;entryY=0.5;entryDx=0;entryDy=0;" edge="1" parent="1" source="NAFzHvzBYw-k1l3KXW49-52" target="NAFzHvzBYw-k1l3KXW49-54">
          <mxGeometry relative="1" as="geometry" />
        </mxCell>
        <mxCell id="NAFzHvzBYw-k1l3KXW49-85" value="заказ доставлен заказчику&lt;div&gt;&lt;br&gt;&lt;/div&gt;" style="edgeLabel;html=1;align=center;verticalAlign=middle;resizable=0;points=[];" vertex="1" connectable="0" parent="NAFzHvzBYw-k1l3KXW49-69">
          <mxGeometry x="-0.1681" y="1" relative="1" as="geometry">
            <mxPoint x="16" y="18" as="offset" />
          </mxGeometry>
        </mxCell>
        <mxCell id="NAFzHvzBYw-k1l3KXW49-52" value="Заказ у курьера" style="rounded=1;whiteSpace=wrap;html=1;" vertex="1" parent="1">
          <mxGeometry x="200" y="388" width="100" height="50" as="geometry" />
        </mxCell>
        <mxCell id="NAFzHvzBYw-k1l3KXW49-68" style="edgeStyle=orthogonalEdgeStyle;rounded=0;orthogonalLoop=1;jettySize=auto;html=1;exitX=0.5;exitY=0;exitDx=0;exitDy=0;entryX=1;entryY=0.5;entryDx=0;entryDy=0;" edge="1" parent="1" source="NAFzHvzBYw-k1l3KXW49-53" target="NAFzHvzBYw-k1l3KXW49-50">
          <mxGeometry relative="1" as="geometry" />
        </mxCell>
        <mxCell id="NAFzHvzBYw-k1l3KXW49-84" value="такой же заказ вновь отправлен и оплачен в ресторан" style="edgeLabel;html=1;align=center;verticalAlign=middle;resizable=0;points=[];" vertex="1" connectable="0" parent="NAFzHvzBYw-k1l3KXW49-68">
          <mxGeometry x="-0.0467" y="-1" relative="1" as="geometry">
            <mxPoint x="44" y="36" as="offset" />
          </mxGeometry>
        </mxCell>
        <mxCell id="NAFzHvzBYw-k1l3KXW49-53" value="Заново сгенерированный заказ" style="rounded=1;whiteSpace=wrap;html=1;" vertex="1" parent="1">
          <mxGeometry x="740" y="270" width="130" height="80" as="geometry" />
        </mxCell>
        <mxCell id="NAFzHvzBYw-k1l3KXW49-70" style="edgeStyle=orthogonalEdgeStyle;rounded=0;orthogonalLoop=1;jettySize=auto;html=1;exitX=1;exitY=0.5;exitDx=0;exitDy=0;entryX=0;entryY=0.5;entryDx=0;entryDy=0;" edge="1" parent="1" source="NAFzHvzBYw-k1l3KXW49-54" target="NAFzHvzBYw-k1l3KXW49-55">
          <mxGeometry relative="1" as="geometry" />
        </mxCell>
        <mxCell id="NAFzHvzBYw-k1l3KXW49-87" value="заказ оплачен&amp;nbsp;&lt;div&gt;заказчиком&lt;/div&gt;" style="edgeLabel;html=1;align=center;verticalAlign=middle;resizable=0;points=[];" vertex="1" connectable="0" parent="NAFzHvzBYw-k1l3KXW49-70">
          <mxGeometry x="0.015" y="4" relative="1" as="geometry">
            <mxPoint x="-2" y="-14" as="offset" />
          </mxGeometry>
        </mxCell>
        <mxCell id="NAFzHvzBYw-k1l3KXW49-54" value="Доставленный заказ" style="rounded=1;whiteSpace=wrap;html=1;" vertex="1" parent="1">
          <mxGeometry x="400" y="480" width="100" height="47" as="geometry" />
        </mxCell>
        <mxCell id="NAFzHvzBYw-k1l3KXW49-71" style="edgeStyle=orthogonalEdgeStyle;rounded=0;orthogonalLoop=1;jettySize=auto;html=1;exitX=0.5;exitY=1;exitDx=0;exitDy=0;entryX=0;entryY=0.5;entryDx=0;entryDy=0;" edge="1" parent="1" source="NAFzHvzBYw-k1l3KXW49-55" target="NAFzHvzBYw-k1l3KXW49-56">
          <mxGeometry relative="1" as="geometry" />
        </mxCell>
        <mxCell id="NAFzHvzBYw-k1l3KXW49-86" value="заказчик оценил доставку" style="edgeLabel;html=1;align=center;verticalAlign=middle;resizable=0;points=[];" vertex="1" connectable="0" parent="NAFzHvzBYw-k1l3KXW49-71">
          <mxGeometry x="-0.5296" y="-2" relative="1" as="geometry">
            <mxPoint as="offset" />
          </mxGeometry>
        </mxCell>
        <mxCell id="NAFzHvzBYw-k1l3KXW49-72" style="edgeStyle=orthogonalEdgeStyle;rounded=0;orthogonalLoop=1;jettySize=auto;html=1;exitX=1;exitY=0.5;exitDx=0;exitDy=0;entryX=0;entryY=0.5;entryDx=0;entryDy=0;" edge="1" parent="1" source="NAFzHvzBYw-k1l3KXW49-55" target="NAFzHvzBYw-k1l3KXW49-45">
          <mxGeometry relative="1" as="geometry" />
        </mxCell>
        <mxCell id="NAFzHvzBYw-k1l3KXW49-55" value="Оплаченный заказ" style="rounded=1;whiteSpace=wrap;html=1;" vertex="1" parent="1">
          <mxGeometry x="600" y="477" width="100" height="50" as="geometry" />
        </mxCell>
        <mxCell id="NAFzHvzBYw-k1l3KXW49-73" style="edgeStyle=orthogonalEdgeStyle;rounded=0;orthogonalLoop=1;jettySize=auto;html=1;exitX=1;exitY=0.5;exitDx=0;exitDy=0;entryX=0;entryY=0.5;entryDx=0;entryDy=0;" edge="1" parent="1" source="NAFzHvzBYw-k1l3KXW49-56" target="NAFzHvzBYw-k1l3KXW49-44">
          <mxGeometry relative="1" as="geometry" />
        </mxCell>
        <mxCell id="NAFzHvzBYw-k1l3KXW49-56" value="Оценённый заказ" style="rounded=1;whiteSpace=wrap;html=1;" vertex="1" parent="1">
          <mxGeometry x="720" y="560" width="100" height="50" as="geometry" />
        </mxCell>
        <mxCell id="NAFzHvzBYw-k1l3KXW49-62" style="edgeStyle=orthogonalEdgeStyle;rounded=0;orthogonalLoop=1;jettySize=auto;html=1;exitX=0.5;exitY=1;exitDx=0;exitDy=0;entryX=0.548;entryY=0.013;entryDx=0;entryDy=0;entryPerimeter=0;" edge="1" parent="1" source="NAFzHvzBYw-k1l3KXW49-50" target="NAFzHvzBYw-k1l3KXW49-51">
          <mxGeometry relative="1" as="geometry" />
        </mxCell>
        <mxCell id="NAFzHvzBYw-k1l3KXW49-81" value="заказ готовится" style="edgeLabel;html=1;align=center;verticalAlign=middle;resizable=0;points=[];" vertex="1" connectable="0" parent="NAFzHvzBYw-k1l3KXW49-62">
          <mxGeometry x="-0.056" relative="1" as="geometry">
            <mxPoint as="offset" />
          </mxGeometry>
        </mxCell>
        <mxCell id="NAFzHvzBYw-k1l3KXW49-63" style="edgeStyle=orthogonalEdgeStyle;rounded=0;orthogonalLoop=1;jettySize=auto;html=1;exitX=0.5;exitY=1;exitDx=0;exitDy=0;entryX=0.547;entryY=0.034;entryDx=0;entryDy=0;entryPerimeter=0;" edge="1" parent="1" source="NAFzHvzBYw-k1l3KXW49-51" target="NAFzHvzBYw-k1l3KXW49-52">
          <mxGeometry relative="1" as="geometry" />
        </mxCell>
        <mxCell id="NAFzHvzBYw-k1l3KXW49-67" style="edgeStyle=orthogonalEdgeStyle;rounded=0;orthogonalLoop=1;jettySize=auto;html=1;exitX=1;exitY=0.5;exitDx=0;exitDy=0;entryX=0;entryY=0.5;entryDx=0;entryDy=0;endArrow=none;endFill=0;" edge="1" parent="1" source="NAFzHvzBYw-k1l3KXW49-65" target="NAFzHvzBYw-k1l3KXW49-66">
          <mxGeometry relative="1" as="geometry" />
        </mxCell>
        <mxCell id="NAFzHvzBYw-k1l3KXW49-65" value="" style="rounded=1;whiteSpace=wrap;html=1;" vertex="1" parent="1">
          <mxGeometry x="810" y="330" width="20" height="10" as="geometry" />
        </mxCell>
        <mxCell id="NAFzHvzBYw-k1l3KXW49-66" value="" style="rounded=1;whiteSpace=wrap;html=1;" vertex="1" parent="1">
          <mxGeometry x="840" y="330" width="20" height="10" as="geometry" />
        </mxCell>
      </root>
    </mxGraphModel>
  </diagram>
</mxfile>
